<?xml version="1.0" encoding="UTF-8"?>
<svg width="332px" height="92px" viewBox="0 0 332 92" version="1.1" xmlns="http://www.w3.org/2000/svg" xmlns:xlink="http://www.w3.org/1999/xlink">
    <title>ornate-end</title>
    <g id="ornate-end" stroke="none" stroke-width="1" fill="none" fill-rule="evenodd">
        <g id="Group" fill="#000000" fill-rule="nonzero">
            <path d="M322.5173,47.9259 L43.8694,47.9259 C34.9411697,47.9259 34.9411697,44.0664 44.047,44.0664 L322.5173,44.0664 C324.7018,37.1195 324.7018,54.8805 322.5173,47.9259 Z" id="Path"></path>
            <path d="M39.7599427,46.6911665 L57.4389026,45.9998528 L39.7599427,45.3085392 C48.250079,42.8289037 56.1389249,41.5191159 63.335246,41.5569336 L68,35.1843545 L60.4001883,32.7130331 C54.6010163,36.8846801 47.4322008,40.3647192 39.0749331,43.2443836 L52.9624793,32.5117311 L38.2448803,42.1259652 C43.6247798,35.2343122 49.2206659,29.6348625 55.0653048,25.5242094 L55.0132997,17.6842442 L47.3811727,20.0585197 C45.1940267,26.7707225 41.4838523,33.7113031 36.4513049,40.8501691 L41.2429153,24.1756474 L35.1083403,40.4230644 C35.3231996,31.751698 36.4887305,24.0014946 38.7490744,17.3126152 L34,11 L29.2509256,17.3126152 C31.5114949,24.0012739 32.6767252,31.7514773 32.8916597,40.4230644 L26.7570847,24.1756474 L31.5486951,40.8502427 C26.5164483,33.7111559 22.8061987,26.7705018 20.6191279,20.0585197 L12.9870009,17.6843177 L12.9347704,25.5242094 C18.7794093,29.6346418 24.3750699,35.2340914 29.7551197,42.1259652 L15.0375207,32.5117311 L28.9250669,43.2443836 C20.5678743,40.3647192 13.3989837,36.8846066 7.59981168,32.7130331 L0,35.1843545 L4.66497943,41.5569336 C11.8610751,41.5190423 19.7501464,42.8289037 28.2400573,45.3085392 L10.5610974,45.9998528 L28.2400573,46.6911665 C19.749921,49.1708019 11.8610751,50.4805898 4.66497943,50.4427721 L0,56.8153512 L7.59981168,59.2866726 C13.3992091,55.1150256 20.5677992,51.6349865 28.9250669,48.7553221 L15.0375207,59.4879746 L29.7551197,49.8737405 C24.3749948,56.7653935 18.7793341,62.3647696 12.9347704,66.4754963 L12.9867755,74.315388 L20.6191279,71.941186 C22.8062739,65.2292775 26.5164483,58.2886234 31.5486951,51.149463 L26.7570847,67.8240583 L32.8911336,51.576862 C32.6762743,60.2482284 31.5109689,67.9984318 29.2503995,74.6873112 L33.9993988,81 L38.7484732,74.6873848 C36.4882045,67.9985054 35.3226736,60.248302 35.1077391,51.5769356 L41.2423141,67.8243526 L36.4507037,51.1497573 C41.4829505,58.2886234 45.1932001,65.2294982 47.3805715,71.9414803 L55.0126985,74.3156823 L55.064929,66.4757906 C49.2202901,62.3653582 43.624404,56.7659086 38.2445045,49.8740348 L52.9621035,59.4882689 L39.0743319,48.7556164 C47.4318251,51.6352808 54.60034,55.1153934 60.399512,59.2869669 L68,56.8156455 L63.3345697,50.4430664 C56.1389249,50.4803691 48.250079,49.1705812 39.7599427,46.6911665 Z M34.500145,49 C32.5671252,49 31,47.4329397 31,45.5 C31,43.5670603 32.5671252,42 34.500145,42 C36.4330923,42 38,43.5670603 38,45.5 C38,47.4329397 36.4331648,49 34.500145,49 Z" id="Shape"></path>
            <path d="M84.4653,21.0751 C215.0746,46.2259 281.6842,38.6015 321.9276,38.6015 C327.4694,38.6015 331.962,34.1089 331.962,28.5672 C331.962,23.0255 327.4694,18.5329 321.9276,18.5329 C315.1384,18.5329 310.2842,25.1572 312.3807,31.6509 C240.5339,38.1924 165.8056,33.3159 93.0571,15.4557 C96.9228,8.8006 92.1256,0.3938 84.3822,0.3938 C75.9537,0.3938 70.6021,10.6471 77.5046,17.5108 C79.6943,19.6895 81.5078,20.5055 84.4653,21.0751 Z" id="Path"></path>
            <path d="M317.9112,53.3332 C303.744,53.6016 206.4941,46.139 91.9836,69.4562 C85.6614,70.7435 77.4464,70.8557 74.9103,78.1641 C72.8519,84.0956 76.8183,91.6042 84.3815,91.6042 C92.11,91.6042 96.9309,83.2123 93.0564,76.5423 C161.9062,59.6392 236.4809,53.4366 312.38,60.3471 C310.2815,66.8469 315.1431,73.4651 321.9269,73.4651 C327.4687,73.4651 331.9613,68.9726 331.9613,63.4308 C331.9613,60.0447 330.1995,56.8207 327.3529,54.9874 C324.5604,53.1883 321.1003,53.2727 317.9112,53.3332 Z" id="Path"></path>
        </g>
    </g>
</svg>