<?xml version="1.0" encoding="UTF-8"?>
<svg width="157px" height="172px" viewBox="0 0 157 172" version="1.1" xmlns="http://www.w3.org/2000/svg" xmlns:xlink="http://www.w3.org/1999/xlink">
    <title>bud_logo_2022</title>
    <defs>
        <polygon id="path-1" points="44.4096523 64.2471524 0 64.2471524 0 32.4301597 0 0.613166955 44.4096523 0.613166955 44.4096523 64.2471524"></polygon>
    </defs>
    <g id="bud_logo_2022" stroke="none" stroke-width="1" fill="none" fill-rule="evenodd">
        <g id="Group" transform="translate(1.000000, 9.000000)">
            <g id="Page-1" transform="translate(0.000000, 10.404255)">
                <g id="Group-3" transform="translate(96.042757, 0.206509)" fill="#FFFFFF">
                    <path d="M33.8926395,69.7771932 C33.8926395,69.7771932 28.8291608,95.3449375 21.3156118,101.900769 C21.3156118,101.900769 2.04629873,103.949467 0.490014065,125.583712 C0.490014065,125.583712 -0.286168214,143.120562 15.272105,149.020811 C15.272105,149.020811 23.7656821,153.282102 35.2117573,148.447176 C35.2117573,148.447176 43.0395687,144.841468 47.6130333,134.679929 C47.6130333,134.679929 55.9313596,119.127707 58.0708695,96.6179462 C60.025657,76.0516478 56.8225103,49.6773557 37.4044069,24.0502659 C37.4044069,24.0502659 71.5289864,74.5380383 34.2062485,134.167918 C34.2062485,134.167918 26.7874355,143.776146 15.8437881,135.991095 C13.6119374,134.403273 11.5153305,130.74643 11.5153305,125.092025 C11.5153305,125.092025 12.7403657,109.112184 32.0959212,114.684642 C32.0959212,114.684642 67.7036099,45.3567195 10.8619784,0.449271158 C10.8619784,0.449271158 41.8962025,24.2141617 33.8926395,69.7771932 Z" id="Fill-1"></path>
                </g>
                <g id="Group-6" transform="translate(0.000000, 86.743489)">
                    <mask id="mask-2" fill="white">
                        <use xlink:href="#path-1"></use>
                    </mask>
                    <g id="Clip-5"></g>
                    <path d="M0,0.613166955 L0,47.8971044 C0,47.8971044 2.74930558,64.247349 21.2339428,64.247349 C38.0603724,64.247349 43.6112518,51.3389161 44.3462729,42.570491 C45.081294,33.8020658 39.5278012,18.313913 22.204824,18.313913 C22.204824,18.313913 17.7476561,18.2804783 12.0053446,21.3459853 L11.9236756,33.9659616 C11.9236756,33.9659616 16.6428377,28.9671398 22.204824,28.9671398 C27.7674637,28.9671398 33.4842944,33.0251997 33.4842944,41.8132924 C33.4842944,50.601385 26.279781,54.0431967 22.204824,54.0431967 C18.1305204,54.0431967 10.2086263,51.3389161 10.2086263,42.570491 L10.1543981,0.613166955 L0,0.613166955 Z" id="Fill-4" fill="#FFFFFF" mask="url(#mask-2)"></path>
                </g>
                <path d="M92.9590002,132.428001 L92.9393996,106.122725 L81.4240691,106.122725 L81.4240691,132.509948 C81.4240691,132.509948 79.5456818,141.442269 70.5620907,141.360321 C61.5784995,141.278374 59.1284291,135.542021 59.1284291,132.591896 L59.1284291,106.122725 L47.4497606,106.122725 L47.4497606,132.83774 C47.4497606,132.83774 47.6130986,150.074989 70.1942534,150.961993 C92.7760616,151.849652 93.079217,131.579676 92.9158789,133.546425 L92.9590002,132.428001 Z" id="Fill-7" fill="#FFFFFF"></path>
            </g>
            <g id="Page-1" transform="translate(88.977778, 0.000000)" fill="#FFFFFF">
                <path d="M11.9826631,0.137167714 C4.11176471,-0.852637094 1.56442894,3.83891107 1.56442894,3.83891107 C1.56442894,3.83891107 -3.38573535,10.0753145 4.32483378,11.8037796 C10.2643981,13.1344234 10.6283032,9.62473171 10.7316733,8.87762957 C10.9890439,7.01303992 16.0678935,9.53292678 16.0678935,9.53292678 L14.8559312,7.19876022 C12.9572959,3.54766786 23.7742434,10.2346541 25.801564,11.9800028 C25.801564,8.81431583 19.0656277,1.02883622 11.9826631,0.137167714 Z" id="Fill-1"></path>
            </g>
        </g>
        <text id="Design-&amp;-Landscaping" font-family="KohinoorBangla-Regular, Kohinoor Bangla" font-size="18" font-weight="normal" line-spacing="22" fill="#FFFFFF">
            <tspan x="8" y="59">Design &amp; </tspan>
            <tspan x="8" y="81">Landscaping</tspan>
        </text>
    </g>
</svg>