<?xml version="1.0" encoding="UTF-8"?>
<svg width="282px" height="50px" viewBox="0 0 282 50" version="1.1" xmlns="http://www.w3.org/2000/svg" xmlns:xlink="http://www.w3.org/1999/xlink">
    <!-- Generator: Sketch 44.1 (41455) - http://www.bohemiancoding.com/sketch -->
    <title>ingenie-business-logo</title>
    <desc>Created with Sketch.</desc>
    <defs></defs>
    <g id="Page-1" stroke="none" stroke-width="1" fill="none" fill-rule="evenodd">
        <g id="ingenie-business-logo" fill-rule="nonzero">
            <g id="ingenie-business-logo-white" transform="translate(-65.000000, -62.000000)">
                <g id="Group" transform="translate(104.206030, 70.490566)" fill="#FFFFFF">
                    <path d="M4.65276382,25.8915094 L0.703819095,25.8915094 L0.703819095,7.88207547 C0.703819095,7.58018868 0.949447236,7.33490566 1.25175879,7.33490566 L4.1001005,7.33490566 C4.40241206,7.33490566 4.6480402,7.58018868 4.6480402,7.88207547 L4.6480402,25.8915094 L4.65276382,25.8915094 Z" id="Shape"></path>
                    <path d="M23.8967839,25.8915094 L19.9289447,25.8915094 L19.9289447,14.4811321 C19.9289447,13.0471698 19.640804,11.9811321 19.0645226,11.2783019 C18.4882412,10.5754717 17.5718593,10.2216981 16.3153769,10.2216981 C14.6479397,10.2216981 13.4245226,10.7122642 12.6498492,11.6981132 C11.8751759,12.6839623 11.4925628,14.3349057 11.4925628,16.6462264 L11.4925628,25.8915094 L7.54361809,25.8915094 L7.54361809,7.83962264 C7.54361809,7.56132075 7.77035176,7.33490566 8.04904523,7.33490566 L10.2313568,7.33490566 C10.4675377,7.33490566 10.6753769,7.5 10.7273367,7.73113208 L11.1902513,9.76886792 L11.3933668,9.76886792 C11.9554774,8.88679245 12.7490452,8.20283019 13.778794,7.72169811 C14.8085427,7.24056604 15.9516583,7 17.2081407,7 C21.6672362,7 23.8967839,9.26415094 23.8967839,13.7971698 L23.8967839,25.8915094 L23.8967839,25.8915094 Z" id="Shape"></path>
                    <path d="M41.1852261,7.75471698 C41.1852261,7.52358491 40.9962814,7.33490566 40.7648241,7.33490566 L35.8994975,7.33490566 C35.6113568,7.25471698 35.1720603,7.17924528 34.5957789,7.10849057 C34.0194975,7.03773585 33.4668342,7 32.9425126,7 C30.5901508,7 28.7762814,7.55188679 27.5056281,8.66037736 C26.2349749,9.76886792 25.5972864,11.3301887 25.5972864,13.3443396 C25.5972864,14.5990566 25.8948744,15.6886792 26.4947739,16.6226415 C27.0946734,17.5566038 27.8740704,18.2311321 28.8376884,18.6462264 C26.5939698,19.1132075 25.6870352,20.5801887 26.8301508,21.4716981 C27.9874372,22.3773585 30.0469347,22.9245283 33.060603,23.8820755 C34.7233166,24.4103774 35.8994975,25.5235849 32.8858291,26.5141509 C31.5584925,26.9528302 29.2486432,27.4764151 25.8429146,28.0188679 C25.4272362,28.0849057 25.2005025,28.5235849 25.4933668,28.8301887 L28.3086432,32.6084906 C28.5542714,32.8726415 28.9038191,33.0660377 29.2628141,33.0283019 C30.1461307,32.9386792 32.1300503,32.490566 35.3090452,31.4622642 C40.618392,29.745283 47.1180905,25.0141509 37.4346734,22.75 C33.0322613,21.7216981 31.5301508,21.4433962 29.6312563,20.7735849 C28.2519598,20.2877358 28.7526633,19.5235849 30.4531658,19.1603774 C30.9349749,19.25 31.6104523,19.4716981 32.7299497,19.5 C35.0492462,19.5566038 36.8678392,18.9528302 38.1904523,17.8537736 C39.5130653,16.759434 40.1743719,15.254717 40.1743719,13.3396226 C40.1743719,12.7028302 40.0798995,12.0990566 39.8909548,11.5283019 C39.7020101,10.9575472 39.4611055,10.4764151 39.1682412,10.0849057 L41.1946734,9.49528302 L41.1946734,7.75471698 L41.1852261,7.75471698 Z M32.8905528,17.3490566 C30.4059296,17.3490566 28.3889447,15.5707547 28.3889447,13.3773585 C28.3889447,11.1839623 30.4059296,9.40566038 32.8905528,9.40566038 C35.3751759,9.40566038 37.3921608,11.1839623 37.3921608,13.3773585 C37.3921608,15.5707547 35.3751759,17.3490566 32.8905528,17.3490566 Z" id="Shape"></path>
                    <path d="M56.2346734,9.23113208 C54.8128643,7.74528302 52.8761809,7 50.4198995,7 C47.7746734,7 45.6962814,7.86792453 44.1847236,9.5990566 C42.6731658,11.3349057 41.9173869,13.7169811 41.9173869,16.745283 C41.9173869,19.6981132 42.7345729,22.0188679 44.3642211,23.7028302 C45.9938693,25.3867925 48.2517588,26.2264151 51.1426131,26.2264151 C52.4085427,26.2264151 53.5327638,26.1320755 54.52,25.9386792 C55.5072362,25.75 56.4803015,25.4245283 57.4439196,24.9669811 L57.4439196,22.240566 C57.4439196,22.0141509 57.2124623,21.8632075 57.0046231,21.9528302 C56.0835176,22.3349057 55.2096482,22.6179245 54.3924623,22.7971698 C53.4477387,23.004717 52.4227136,23.1084906 51.3268342,23.1084906 C49.659397,23.1084906 48.3651256,22.6226415 47.4440201,21.6556604 C46.5276382,20.6886792 46.0363819,19.3018868 45.9796985,17.5 L57.1274372,17.5 C57.8123618,17.5 58.3650251,16.9481132 58.3650251,16.2641509 L58.3650251,15.3726415 C58.3697487,12.7641509 57.6564824,10.7169811 56.2346734,9.23113208 Z M46.0505528,14.6509434 C46.1969849,13.1320755 46.6457286,11.9716981 47.4015075,11.1792453 C48.1572864,10.3867925 49.1634171,9.99056604 50.4198995,9.99056604 C51.6763819,9.99056604 52.6588945,10.3867925 53.3768844,11.1745283 C54.0948744,11.9622642 54.4633166,13.1226415 54.4869347,14.6556604 L46.0505528,14.6556604 L46.0505528,14.6509434 Z" id="Shape"></path>
                    <path d="M76.4517588,25.8915094 L72.4839196,25.8915094 L72.4839196,14.4811321 C72.4839196,13.0471698 72.1957789,11.9811321 71.6194975,11.2783019 C71.0432161,10.5754717 70.1268342,10.2216981 68.8703518,10.2216981 C67.2029146,10.2216981 65.9794975,10.7122642 65.2048241,11.6981132 C64.4301508,12.6839623 64.0475377,14.3349057 64.0475377,16.6462264 L64.0475377,25.8915094 L60.098593,25.8915094 L60.098593,7.89622642 C60.098593,7.58490566 60.3489447,7.33490566 60.6607035,7.33490566 L62.7390955,7.33490566 C63.0036181,7.33490566 63.2303518,7.51886792 63.2870352,7.77358491 L63.7405025,9.76886792 L63.9436181,9.76886792 C64.5057286,8.88679245 65.2992965,8.20283019 66.3290452,7.72169811 C67.358794,7.24056604 68.5019095,7 69.758392,7 C74.2174874,7 76.4470352,9.26415094 76.4470352,13.7971698 L76.4470352,25.8915094 L76.4517588,25.8915094 Z" id="Shape"></path>
                    <path d="M83.140402,25.8915094 L79.1914573,25.8915094 L79.1914573,7.9009434 C79.1914573,7.58962264 79.4465327,7.33490566 79.7582915,7.33490566 L82.5688442,7.33490566 C82.880603,7.33490566 83.1356784,7.58962264 83.1356784,7.9009434 L83.1356784,25.8915094 L83.140402,25.8915094 Z" id="Shape"></path>
                    <path d="M99.2432161,9.23113208 C97.821407,7.74528302 95.8847236,7 93.4284422,7 C90.7832161,7 88.7048241,7.86792453 87.1932663,9.5990566 C85.6817085,11.3349057 84.9259296,13.7169811 84.9259296,16.745283 C84.9259296,19.6981132 85.7431156,22.0188679 87.3727638,23.7028302 C89.0024121,25.3867925 91.2650251,26.2264151 94.1558794,26.2264151 C95.421809,26.2264151 96.5460302,26.1320755 97.5332663,25.9386792 C98.5157789,25.75 99.4935678,25.4245283 100.457186,24.9669811 L100.457186,22.2924528 C100.457186,22.0424528 100.202111,21.8773585 99.9706533,21.9716981 C99.0637186,22.3443396 98.2087437,22.6226415 97.4057286,22.7971698 C96.461005,23.004717 95.4359799,23.1084906 94.3401005,23.1084906 C92.6679397,23.1084906 91.378392,22.6226415 90.4572864,21.6556604 C89.5361809,20.6886792 89.0496482,19.3018868 88.9929648,17.5 L100.117085,17.5 C100.811457,17.5 101.373568,16.9386792 101.373568,16.245283 L101.373568,15.3726415 C101.378291,12.7641509 100.665025,10.7169811 99.2432161,9.23113208 Z M89.0590955,14.6509434 C89.2055276,13.1320755 89.6542714,11.9716981 90.4100503,11.1792453 C91.1658291,10.3867925 92.1719598,9.99056604 93.4284422,9.99056604 C94.6849246,9.99056604 95.6674372,10.3867925 96.3854271,11.1745283 C97.1034171,11.9622642 97.4718593,13.1226415 97.4954774,14.6556604 L89.0590955,14.6556604 L89.0590955,14.6509434 Z" id="Shape"></path>
                    <ellipse id="Oval" cx="2.68773869" cy="2.4009434" rx="2.22954774" ry="2.22641509"></ellipse>
                    <ellipse id="Oval" cx="81.1753769" cy="2.4009434" rx="2.22954774" ry="2.22641509"></ellipse>
                </g>
                <path d="M80.2242211,62 C88.6322613,62 95.4484422,68.8066038 95.4437186,77.2028302 C95.4437186,77.7216981 95.4201005,78.2358491 95.3681407,78.740566 C94.598191,86.4103774 80.2242211,111.34434 80.2242211,111.34434 C80.2242211,111.34434 65.9447236,86.504717 65.0944724,78.9103774 C65.0330653,78.3490566 65,77.7783019 65,77.2028302 C65,68.8066038 71.8161809,62 80.2242211,62 Z M80.2242211,86.6556604 C86.2326633,86.6556604 91.1027136,82.3584906 91.1027136,77.0613208 C91.1027136,71.7641509 86.2326633,67.4669811 80.2242211,67.4669811 C74.2157789,67.4669811 69.3457286,71.7641509 69.3457286,77.0613208 C69.3457286,82.3584906 74.2157789,86.6556604 80.2242211,86.6556604 Z" id="Shape" fill="#FFFFFF"></path>
                <g id="Group" transform="translate(210.959799, 69.547170)" fill="#ED7626">
                    <path d="M11.020201,7.3254717 C13.3253266,7.3254717 15.1250251,8.22169811 16.4287437,10.0188679 C17.7324623,11.8113208 18.3843216,14.2735849 18.3843216,17.3962264 C18.3843216,20.6132075 17.7135678,23.1037736 16.3673367,24.8726415 C15.0258291,26.6367925 13.1930653,27.5188679 10.8784925,27.5188679 C8.58753769,27.5188679 6.7878392,26.6886792 5.48884422,25.0283019 L5.12040201,25.0283019 L4.23236181,27.1698113 L0.165326633,27.1698113 L0.165326633,0.0613207547 L5.48884422,0.0613207547 L5.48884422,6.36792453 C5.48884422,7.16981132 5.41798995,8.45283019 5.28100503,10.2169811 L5.48884422,10.2169811 C6.73115578,8.29245283 8.57336683,7.3254717 11.020201,7.3254717 Z M9.31025126,11.5801887 C7.99708543,11.5801887 7.03819095,11.9858491 6.43356784,12.7924528 C5.82894472,13.5990566 5.51246231,14.9339623 5.48884422,16.7924528 L5.48884422,17.3679245 C5.48884422,19.4575472 5.80060302,20.9575472 6.4241206,21.8632075 C7.04763819,22.7688679 8.03015075,23.2216981 9.38110553,23.2216981 C10.4722613,23.2216981 11.3461307,22.7216981 11.9885427,21.7122642 C12.6356784,20.7075472 12.9568844,19.245283 12.9568844,17.3301887 C12.9568844,15.4150943 12.6309548,13.9764151 11.9790955,13.0188679 C11.3272362,12.0566038 10.4344724,11.5801887 9.31025126,11.5801887 Z" id="Shape"></path>
                    <path d="M34.4540704,27.1698113 L33.740804,24.6792453 L33.4621106,24.6792453 C32.8905528,25.5849057 32.0828141,26.2830189 31.0388945,26.7783019 C29.9902513,27.2735849 28.7998995,27.5188679 27.4631156,27.5188679 C25.1721608,27.5188679 23.4433166,26.9056604 22.2813065,25.6792453 C21.1192965,24.4528302 20.5382915,22.6933962 20.5382915,20.3915094 L20.5382915,7.69339623 L25.861809,7.69339623 L25.861809,19.0707547 C25.861809,20.4764151 26.1121608,21.5283019 26.6128643,22.2311321 C27.1135678,22.9339623 27.9118593,23.2830189 29.0030151,23.2830189 C30.4909548,23.2830189 31.5679397,22.7877358 32.2292462,21.7924528 C32.8905528,20.7971698 33.2259296,19.1509434 33.2259296,16.8537736 L33.2259296,7.69339623 L38.5494472,7.69339623 L38.5494472,27.1745283 L34.4540704,27.1745283 L34.4540704,27.1698113 Z" id="Shape"></path>
                    <path d="M55.5828141,21.3867925 C55.5828141,23.3867925 54.8884422,24.9056604 53.4996985,25.9528302 C52.1109548,27 50.0325628,27.5188679 47.259799,27.5188679 C45.8427136,27.5188679 44.6287437,27.4245283 43.6320603,27.2311321 C42.6353769,27.0377358 41.6953769,26.759434 40.8215075,26.3867925 L40.8215075,21.995283 C41.8087437,22.4622642 42.9235176,22.8490566 44.1611055,23.1603774 C45.3986935,23.4764151 46.4898492,23.6320755 47.4345729,23.6320755 C49.3665327,23.6320755 50.3301508,23.0754717 50.3301508,21.9575472 C50.3301508,21.5377358 50.2026131,21.1981132 49.9475377,20.9386792 C49.6924623,20.6792453 49.2484422,20.3820755 48.620201,20.0518868 C47.9919598,19.7216981 47.1558794,19.3349057 46.1072362,18.8915094 C44.6051256,18.2641509 43.5045226,17.6839623 42.8007035,17.1509434 C42.0968844,16.6179245 41.5867337,16.004717 41.2655276,15.3113208 C40.9443216,14.6226415 40.7837186,13.7688679 40.7837186,12.759434 C40.7837186,11.0283019 41.4544724,9.68867925 42.8007035,8.74528302 C44.1422111,7.79716981 46.0505528,7.3254717 48.5162814,7.3254717 C50.8639196,7.3254717 53.1501508,7.83490566 55.3749749,8.85849057 L53.7689447,12.6933962 C52.7911558,12.2735849 51.8794975,11.9339623 51.0292462,11.6650943 C50.178995,11.3962264 49.3145729,11.2641509 48.4312563,11.2641509 C46.8630151,11.2641509 46.0741709,11.6886792 46.0741709,12.5377358 C46.0741709,13.0141509 46.3292462,13.4245283 46.8346734,13.7735849 C47.3401005,14.1226415 48.4501508,14.6367925 50.1601005,15.3254717 C51.6858291,15.9386792 52.800603,16.5141509 53.5091457,17.0518868 C54.2176884,17.5849057 54.7420101,18.2028302 55.0773869,18.9009434 C55.4174874,19.5943396 55.5828141,20.4245283 55.5828141,21.3867925 Z" id="Shape"></path>
                    <path d="M57.3683417,2.65566038 C57.3683417,0.924528302 58.3319598,0.0613207547 60.2639196,0.0613207547 C62.1958794,0.0613207547 63.1594975,0.924528302 63.1594975,2.65566038 C63.1594975,3.48113208 62.918593,4.12264151 62.4367839,4.58018868 C61.9549749,5.03773585 61.2322613,5.26886792 60.2639196,5.26886792 C58.3319598,5.26886792 57.3683417,4.4009434 57.3683417,2.65566038 Z M62.9138693,27.1698113 L57.5903518,27.1698113 L57.5903518,7.68867925 L62.9138693,7.68867925 L62.9138693,27.1698113 Z" id="Shape"></path>
                    <path d="M84.3590955,27.1698113 L79.0355779,27.1698113 L79.0355779,15.7924528 C79.0355779,14.3867925 78.7852261,13.3349057 78.2845226,12.6320755 C77.7838191,11.9292453 76.9855276,11.5801887 75.8943719,11.5801887 C74.4064322,11.5801887 73.3294472,12.0754717 72.6681407,13.0707547 C72.0068342,14.0660377 71.6714573,15.7122642 71.6714573,18.009434 L71.6714573,27.1698113 L66.3479397,27.1698113 L66.3479397,7.68867925 L70.4149749,7.68867925 L71.1282412,10.1792453 L71.4258291,10.1792453 C72.021005,9.23584906 72.838191,8.52830189 73.8773869,8.04245283 C74.9165829,7.56132075 76.1022111,7.32075472 77.4295477,7.32075472 C79.6968844,7.32075472 81.421005,7.93396226 82.5924623,9.16037736 C83.7686432,10.3867925 84.3543719,12.1556604 84.3543719,14.4669811 L84.3543719,27.1698113 L84.3590955,27.1698113 Z" id="Shape"></path>
                    <path d="M96.5224121,27.5188679 C93.381206,27.5188679 90.9296482,26.6556604 89.1582915,24.9245283 C87.3869347,23.1933962 86.5083417,20.740566 86.5083417,17.5707547 C86.5083417,14.3066038 87.3255276,11.7830189 88.9598995,10 C90.5942714,8.21698113 92.8521608,7.3254717 95.7382915,7.3254717 C98.4968844,7.3254717 100.641407,8.10849057 102.176583,9.67924528 C103.711759,11.245283 104.481709,13.4150943 104.481709,16.1792453 L104.481709,18.759434 L91.9027136,18.759434 C91.959397,20.2688679 92.4081407,21.4481132 93.2442211,22.2971698 C94.0803015,23.1462264 95.2564824,23.5707547 96.7680402,23.5707547 C97.9442211,23.5707547 99.0542714,23.4481132 100.102915,23.2028302 C101.151558,22.9575472 102.242714,22.5707547 103.381106,22.0377358 L103.381106,26.1509434 C102.450553,26.6179245 101.453869,26.9622642 100.395779,27.1886792 C99.3376884,27.4056604 98.0481407,27.5188679 96.5224121,27.5188679 Z M95.7713568,11.1084906 C94.6424121,11.1084906 93.7590955,11.4669811 93.121407,12.1792453 C92.4837186,12.8915094 92.1152764,13.9056604 92.020804,15.2216981 L99.4888442,15.2216981 C99.4652261,13.9103774 99.120402,12.8962264 98.4590955,12.1792453 C97.7977889,11.4669811 96.9003015,11.1084906 95.7713568,11.1084906 Z" id="Shape"></path>
                    <path d="M120.272764,21.3867925 C120.272764,23.3867925 119.578392,24.9056604 118.189648,25.9528302 C116.800905,27 114.722513,27.5188679 111.949749,27.5188679 C110.532663,27.5188679 109.318693,27.4245283 108.32201,27.2311321 C107.325327,27.0377358 106.385327,26.759434 105.511457,26.3867925 L105.511457,21.995283 C106.498693,22.4622642 107.613467,22.8490566 108.851055,23.1603774 C110.088643,23.4764151 111.179799,23.6320755 112.124523,23.6320755 C114.056482,23.6320755 115.020101,23.0754717 115.020101,21.9575472 C115.020101,21.5377358 114.892563,21.1981132 114.637487,20.9386792 C114.382412,20.6792453 113.938392,20.3820755 113.310151,20.0518868 C112.68191,19.7216981 111.845829,19.3349057 110.797186,18.8915094 C109.295075,18.2641509 108.194472,17.6839623 107.490653,17.1509434 C106.786834,16.6179245 106.276683,16.004717 105.955477,15.3113208 C105.634271,14.6226415 105.473668,13.7688679 105.473668,12.759434 C105.473668,11.0283019 106.144422,9.68867925 107.490653,8.74528302 C108.832161,7.79716981 110.740503,7.3254717 113.206231,7.3254717 C115.553869,7.3254717 117.840101,7.83490566 120.064925,8.85849057 L118.458894,12.6933962 C117.481106,12.2735849 116.569447,11.9339623 115.719196,11.6650943 C114.868945,11.3962264 114.004523,11.2641509 113.121206,11.2641509 C111.552965,11.2641509 110.764121,11.6886792 110.764121,12.5377358 C110.764121,13.0141509 111.019196,13.4245283 111.524623,13.7735849 C112.03005,14.1226415 113.140101,14.6367925 114.85005,15.3254717 C116.375779,15.9386792 117.490553,16.5141509 118.199095,17.0518868 C118.907638,17.5849057 119.43196,18.2028302 119.767337,18.9009434 C120.102714,19.5943396 120.272764,20.4245283 120.272764,21.3867925 Z" id="Shape"></path>
                    <path d="M135.889045,21.3867925 C135.889045,23.3867925 135.194673,24.9056604 133.80593,25.9528302 C132.417186,27 130.338794,27.5188679 127.56603,27.5188679 C126.148945,27.5188679 124.934975,27.4245283 123.938291,27.2311321 C122.941608,27.0377358 122.001608,26.759434 121.127739,26.3867925 L121.127739,21.995283 C122.114975,22.4622642 123.229749,22.8490566 124.467337,23.1603774 C125.704925,23.4764151 126.79608,23.6320755 127.740804,23.6320755 C129.672764,23.6320755 130.636382,23.0754717 130.636382,21.9575472 C130.636382,21.5377358 130.508844,21.1981132 130.253769,20.9386792 C129.998693,20.6792453 129.554673,20.3820755 128.926432,20.0518868 C128.298191,19.7216981 127.462111,19.3349057 126.413467,18.8915094 C124.911357,18.2641509 123.810754,17.6839623 123.106935,17.1509434 C122.403116,16.6179245 121.892965,16.004717 121.571759,15.3113208 C121.250553,14.6226415 121.08995,13.7688679 121.08995,12.759434 C121.08995,11.0283019 121.760704,9.68867925 123.106935,8.74528302 C124.448442,7.79716981 126.356784,7.3254717 128.822513,7.3254717 C131.170151,7.3254717 133.456382,7.83490566 135.681206,8.85849057 L134.075176,12.6933962 C133.097387,12.2735849 132.185729,11.9339623 131.335477,11.6650943 C130.485226,11.3962264 129.620804,11.2641509 128.737487,11.2641509 C127.169246,11.2641509 126.380402,11.6886792 126.380402,12.5377358 C126.380402,13.0141509 126.635477,13.4245283 127.140905,13.7735849 C127.646332,14.1226415 128.756382,14.6367925 130.466332,15.3254717 C131.99206,15.9386792 133.106834,16.5141509 133.815377,17.0518868 C134.52392,17.5849057 135.048241,18.2028302 135.383618,18.9009434 C135.718995,19.5943396 135.889045,20.4245283 135.889045,21.3867925 Z" id="Shape"></path>
                </g>
                <path d="M76.7523618,76.3679245 C75.7415075,76.3679245 74.9148744,75.5471698 74.9148744,74.5330189 C74.9148744,73.5235849 75.7367839,72.6981132 76.7523618,72.6981132 C77.7632161,72.6981132 78.5898492,73.5188679 78.5898492,74.5330189 C78.5898492,75.5471698 77.7679397,76.3679245 76.7523618,76.3679245 Z" id="Path" fill="#FFFFFF"></path>
                <path d="M84.6077387,76.3679245 C83.5968844,76.3679245 82.7702513,75.5471698 82.7702513,74.5330189 C82.7702513,73.5235849 83.5921608,72.6981132 84.6077387,72.6981132 C85.618593,72.6981132 86.4452261,73.5188679 86.4452261,74.5330189 C86.4452261,75.5471698 85.6233166,76.3679245 84.6077387,76.3679245 Z" id="Path" fill="#FFFFFF"></path>
            </g>
        </g>
    </g>
</svg>